<svg width="32" height="32" viewBox="0 0 32 32" fill="none" xmlns="http://www.w3.org/2000/svg">
<g clip-path="url(#clip0_16522_113619)">
<circle opacity="0.7" cx="15.5035" cy="16.4962" r="13.9034" fill="#FEC272"/>
<mask id="mask0_16522_113619" style="mask-type:alpha" maskUnits="userSpaceOnUse" x="1" y="1" width="39" height="30">
<path d="M33.4609 13.6354C33.4609 15.9801 40.3393 23.3482 39.2135 25.2427C38.9451 25.6943 25.8166 24.8278 25.4957 25.2427C23.0736 28.3741 19.218 30.3996 14.8754 30.3996C7.54366 30.3996 1.6001 24.6261 1.6001 17.5041C1.6001 10.3821 19.0489 1.59961 26.3807 1.59961C33.7124 1.59961 33.4609 6.51343 33.4609 13.6354Z" fill="#FEC272"/>
</mask>
<g mask="url(#mask0_16522_113619)">
<path d="M8.54209 14.9874C8.54209 14.9874 4.15347 16.1396 5.32467 20.4079C6.41631 24.3874 10.1499 23.1337 11.1098 22.8202C12.0696 22.5064 8.54242 14.9876 8.54242 14.9876L8.54209 14.9874Z" fill="#F7CC7F"/>
<path d="M11.1092 22.8194C11.5562 22.6733 11.0301 20.9651 10.3407 19.1813C8.73476 19.6911 6.94572 20.2595 5.42718 20.744C6.63276 24.3136 10.1777 23.1241 11.1092 22.8194Z" fill="#E8BA70"/>
<path d="M12.0956 23.4693C12.0956 23.4693 13.4732 26.8897 13.5237 29.6618C13.5712 32.2471 13.9801 32.6329 14.9133 32.4457C15.8466 32.2585 18.0689 31.4326 18.006 30.5143C17.9432 29.5961 16.9941 24.9534 15.1266 22.6142C13.2591 20.275 12.0956 23.4693 12.0956 23.4693Z" fill="#61738E"/>
<path d="M13.4527 21.8256C12.8724 22.3221 12.0955 23.4696 12.0955 23.4696C12.0955 23.4696 13.473 26.8899 13.5235 29.6621C13.5711 32.2474 13.9799 32.6331 14.9132 32.4459C15.2555 32.3772 15.7711 32.2225 16.2838 32.0092C15.9517 25.6792 13.9653 22.4884 13.4527 21.8256Z" fill="#324766"/>
<path d="M21.095 4.90821C21.095 4.90821 14.3076 11.1776 12.1013 13.0913L10.939 15.3502L12.6209 21.3601L15.1457 22.2786L27.0939 23.2926L26.6742 21.9983L23.885 16.2982L22.0408 9.65901L21.2569 5.53734L21.095 4.90821Z" fill="#EAEFF4"/>
<path d="M23.8843 16.2978L23.4007 14.5573L11.9023 18.7945L12.6202 21.3596L15.1451 22.2781L27.0932 23.2922L26.6732 21.9978L23.8843 16.2978Z" fill="#C5CCD8"/>
<path d="M12.1002 13.0908C12.1002 13.0908 11.7074 18.3933 15.145 22.2781C15.145 22.2781 15.3544 22.6504 15.021 22.9346L12.8791 23.7514C12.8791 23.7514 11.8974 24.2319 10.8683 22.847C9.83909 21.4618 7.94035 18.3038 8.42895 14.5271C8.42895 14.5271 8.53757 13.5074 9.72002 13.1892L11.29 12.704C11.29 12.704 11.9892 12.5121 12.1002 13.0908Z" fill="#91A1B7"/>
<path d="M21.0934 4.90824C21.0934 4.90824 22.8573 3.25996 23.9738 3.16532C25.0902 3.07038 26.371 4.4374 27.2302 5.57447C28.0894 6.71125 30.5227 11.2797 31.0665 14.4875C31.6105 17.6953 32.0981 22.2976 30.5956 23.0219C29.0931 23.7461 27.0926 23.2929 27.0926 23.2929C27.0926 23.2929 24.319 21.3845 22.077 14.7286C19.8351 8.07261 21.0934 4.90854 21.0934 4.90854L21.0934 4.90824Z" fill="#F18C9D"/>
<path d="M29.5085 23.3295C29.5085 23.3295 31.0422 20.7669 29.4075 14.4976C26.8344 4.62688 23.0238 3.5193 23.0238 3.5193C23.0238 3.5193 20.5631 5.89398 24.2282 15.3002C27.2483 23.051 29.5085 23.3295 29.5085 23.3295Z" fill="#E22D4C"/>
<path d="M22.9078 11.3162C23.2155 12.4778 23.6439 13.7986 24.2286 15.2992C24.5211 16.0501 24.8066 16.7304 25.0836 17.3475C26.1582 16.8291 27.8575 15.6422 26.8039 13.2359C25.8279 11.006 23.9477 11.0746 22.9078 11.3162Z" fill="#F7CC7F"/>
<path d="M24.2288 15.2998C24.5213 16.0506 24.8068 16.7309 25.0837 17.348C26.1439 16.8369 27.8105 15.6756 26.846 13.3353L23.8846 14.3875C23.9928 14.684 24.1073 14.988 24.2288 15.2998Z" fill="#E8BA70"/>
<g style="mix-blend-mode:multiply" opacity="0.3">
<path d="M15.1458 22.2783C14.0683 21.061 13.3673 19.7043 12.9126 18.4154L9.0875 19.6024C9.62919 21.0284 10.357 22.1576 10.8694 22.8473C11.8986 24.2324 12.8801 23.7517 12.8801 23.7517L15.0221 22.9348C15.3555 22.6507 15.1458 22.2783 15.1458 22.2783Z" fill="#BAC6D8"/>
</g>
</g>
</g>
<defs>
<clipPath id="clip0_16522_113619">
<rect width="32" height="32" fill="white"/>
</clipPath>
</defs>
</svg>
