<svg width="7" height="8" viewBox="0 0 7 8" fill="none" xmlns="http://www.w3.org/2000/svg">
<path d="M3.49984 0.666504L3.93367 2.40183C4.01832 2.74045 4.06065 2.90976 4.14881 3.04753C4.22679 3.1694 4.33028 3.27289 4.45214 3.35087C4.58991 3.43902 4.75922 3.48135 5.09784 3.566L6.83317 3.99984L5.09784 4.43367C4.75922 4.51832 4.58991 4.56065 4.45214 4.64881C4.33028 4.72679 4.22679 4.83028 4.14881 4.95214C4.06065 5.08991 4.01832 5.25922 3.93367 5.59784L3.49984 7.33317L3.066 5.59784C2.98135 5.25922 2.93902 5.08991 2.85087 4.95214C2.77289 4.83028 2.6694 4.72679 2.54753 4.64881C2.40976 4.56065 2.24045 4.51832 1.90183 4.43367L0.166504 3.99984L1.90183 3.566C2.24045 3.48135 2.40976 3.43902 2.54753 3.35087C2.6694 3.27289 2.77289 3.1694 2.85087 3.04753C2.93902 2.90976 2.98135 2.74045 3.066 2.40183L3.49984 0.666504Z" fill="#20A164"/>
<path d="M3.49984 0.666504L3.93367 2.40183C4.01832 2.74045 4.06065 2.90976 4.14881 3.04753C4.22679 3.1694 4.33028 3.27289 4.45214 3.35087C4.58991 3.43902 4.75922 3.48135 5.09784 3.566L6.83317 3.99984L5.09784 4.43367C4.75922 4.51832 4.58991 4.56065 4.45214 4.64881C4.33028 4.72679 4.22679 4.83028 4.14881 4.95214C4.06065 5.08991 4.01832 5.25922 3.93367 5.59784L3.49984 7.33317L3.066 5.59784C2.98135 5.25922 2.93902 5.08991 2.85087 4.95214C2.77289 4.83028 2.6694 4.72679 2.54753 4.64881C2.40976 4.56065 2.24045 4.51832 1.90183 4.43367L0.166504 3.99984L1.90183 3.566C2.24045 3.48135 2.40976 3.43902 2.54753 3.35087C2.6694 3.27289 2.77289 3.1694 2.85087 3.04753C2.93902 2.90976 2.98135 2.74045 3.066 2.40183L3.49984 0.666504Z" fill="#20A164"/>
</svg>
